<svg width="217" height="48" viewBox="0 0 216.75 48" fill="none" xmlns="http://www.w3.org/2000/svg" role="img" aria-label="Network technology icons">
  <title>Network technology icons</title>

  <rect width="48" height="48" rx="10" fill="#242938"/>
  <rect x="56.25" width="48" height="48" rx="10" fill="#242938"/>
  <rect x="112.5" width="48" height="48" rx="10" fill="#242938"/>
  <rect x="168.75" width="48" height="48" rx="10" fill="#242938"/>

  <!-- BIRD full official logo: https://bird.nic.cz/static/img/bird-logo.d3eb77452cc8.svg -->
  <g transform="translate(3.3 14.4) scale(0.3)" fill="#F5F7FA">
    <path d="M43.3306 39.5469C43.8366 38.6982 44.1126 37.7118 44.1126 36.5878C44.1126 34.5462 43.4456 33.0781 42.1116 32.1835C40.7776 31.2889 38.5006 30.853 35.2806 30.853H16.7656V53.7921H36.4536C39.3286 53.7921 41.4676 53.2416 42.9166 52.1634C44.3426 51.0623 45.0556 49.4337 45.0556 47.2545C45.0556 45.8322 44.7106 44.6394 44.0436 43.676C43.3766 42.7125 42.3646 42.0244 41.0536 41.6114C42.0426 41.0838 42.8016 40.3957 43.3306 39.5469ZM25.6896 36.2208H31.6696C33.0266 36.2208 33.8776 36.3355 34.2456 36.5649C34.5906 36.7942 34.7746 37.2301 34.7746 37.8494C34.7746 38.4688 34.5906 38.8817 34.1996 39.1111C33.8086 39.3405 32.9806 39.4552 31.6696 39.4552H25.6896V36.2208ZM34.8206 47.6903C34.3836 47.9656 33.4406 48.1032 31.9916 48.1032H25.6666V44.3412H31.9916C33.4176 44.3412 34.3376 44.4788 34.7976 44.7541C35.2346 45.0294 35.4646 45.534 35.4646 46.2451C35.4646 46.9333 35.2346 47.415 34.8206 47.6903Z"/>
    <path d="M57.7756 30.853H48.8516V53.7921H57.7756V30.853Z"/>
    <path d="M89.5381 40.6021C90.2051 39.5699 90.5501 38.377 90.5501 37.0236C90.5501 35.8996 90.3201 34.9132 89.8831 34.0645C89.4231 33.2158 88.7791 32.5276 87.9051 32.0229C87.2381 31.61 86.2951 31.3118 85.0991 31.1283C83.9031 30.9448 82.2931 30.853 80.2921 30.853H62.7891V53.7921H71.8281V46.7957H77.1411C78.2451 46.7957 79.0501 46.9563 79.5101 47.3003C79.9931 47.6444 80.2691 48.2179 80.3611 49.0666C80.4071 49.5025 80.4531 50.1448 80.4761 50.9477C80.4991 52.3469 80.6831 53.2874 80.9821 53.7692H90.8951V53.448C90.2281 53.1039 89.8141 51.4523 89.6761 48.4473C89.6761 48.1491 89.6531 47.8968 89.6531 47.7132C89.5841 46.1304 89.3311 45.0294 88.9401 44.3871C88.5261 43.7677 87.8131 43.2401 86.8011 42.8043C87.9511 42.3914 88.8711 41.6344 89.5381 40.6021ZM79.8781 40.281C79.3261 40.6021 78.3601 40.7627 77.0031 40.7627H71.8051V36.6795H76.7731C78.3371 36.6795 79.3951 36.8172 79.9011 37.1154C80.4301 37.4136 80.6831 37.9412 80.6831 38.6753C80.7061 39.4322 80.4301 39.9828 79.8781 40.281Z"/>
    <path d="M120.012 33.7663C117.505 31.8165 113.871 30.8301 109.11 30.8301H94.3672V53.815H109.11C113.894 53.815 117.551 52.8516 120.035 50.9018C122.519 48.9519 123.761 46.1075 123.761 42.3684C123.761 38.5835 122.496 35.7161 120.012 33.7663ZM112.675 46.4057C111.686 47.2774 110.03 47.7132 107.707 47.7132H103.268V36.519H107.707C110.007 36.519 111.64 36.9548 112.652 37.8265C113.664 38.6982 114.17 40.1204 114.17 42.0932C114.17 44.0889 113.664 45.534 112.675 46.4057Z"/>
    <path d="M117.507 22.6639C108.353 19.0624 97.106 16.608 84.87 15.461C95.565 -1.00925 100.487 5.36781 111.895 5.20723C90.459 -4.58775 88.803 0.0230035 80.868 15.1398C76.981 14.8646 73.025 14.7269 69 14.7269C64.906 14.7269 60.858 14.8646 56.879 15.1398C55.522 15.2316 54.188 15.3463 52.854 15.4839C40.733 16.6309 29.578 19.0854 20.493 22.6639C7.268 27.871 0 34.8445 0 42.3226C0 47.3004 3.22 52.0488 9.292 56.2008H11.96C5.129 52.0488 1.472 47.2775 1.472 42.3226C1.472 35.4868 8.418 28.995 21.045 24.0173C29.095 20.8517 38.778 18.5807 49.358 17.3191C46.598 19.6818 44.827 24.2237 45.08 32.0689C48.576 11.9513 79.511 24.7513 79.81 24.1778C81.305 21.3563 82.708 18.9477 83.996 16.8373C96.37 17.9384 107.755 20.3929 116.978 24.0173C129.605 28.9721 136.551 35.4868 136.551 42.3226C136.551 47.2775 132.894 52.0718 126.063 56.2008H128.731C134.78 52.0488 138.023 47.2775 138.023 42.3226C138 34.8445 130.732 27.871 117.507 22.6639ZM78.522 19.5441C73.347 18.466 68.195 17.3649 63.02 16.2868C64.998 16.218 66.999 16.1721 69 16.1721C72.772 16.1721 76.475 16.2868 80.132 16.5391C79.626 17.5026 79.074 18.5119 78.522 19.5441Z"/>
    <path d="M122.654 55.9485H15.3594V57.3936H122.654V55.9485Z"/>
    <path d="M122.654 62.5549H15.3594V64.0001H122.654V62.5549Z"/>
    <path d="M122.654 59.2747H15.3594V60.7198H122.654V59.2747Z"/>
  </g>

  <!-- FRRouting: https://frrouting.org/img/frrouting.svg -->
  <g transform="translate(64.25 7) scale(0.016)" fill="#F48020">
    <path d="M1453 1948 c-17 -18 -50 -62 -74 -98 -23 -36 -58 -85 -78 -109 -19 -25 -42 -57 -51 -72 -8 -15 -30 -46 -48 -70 -31 -40 -33 -47 -30 -113 l3 -69 40 -14 c86 -29 131 -57 187 -116 76 -81 101 -143 102 -257 2 -142 -34 -222 -136 -308 -58 -48 -118 -82 -163 -92 -30 -6 -30 -6 -30 -75 0 -69 1 -70 27 -73 35 -4 156 47 207 87 21 17 43 31 48 31 13 0 117 119 143 162 26 45 48 117 60 200 9 64 13 70 72 130 35 35 101 98 148 140 54 50 81 81 75 87 -6 6 -34 5 -75 -5 -36 -7 -96 -18 -135 -24 -38 -5 -84 -12 -102 -16 -29 -6 -34 -2 -83 60 -56 71 -182 176 -212 176 -15 0 -4 22 52 104 39 57 79 111 90 121 11 10 20 24 20 31 0 7 13 28 28 46 44 50 102 139 102 154 0 11 -18 14 -78 14 -75 0 -79 -1 -109 -32z"/>
    <path d="M965 1910 c-22 -4 -67 -18 -100 -30 -33 -11 -73 -25 -90 -29 -48 -13 -210 -127 -266 -189 -57 -63 -139 -180 -139 -200 0 -6 -9 -31 -19 -55 -51 -110 -68 -309 -36 -430 38 -145 115 -288 195 -363 94 -88 149 -127 232 -168 118 -58 178 -76 251 -76 l58 0 -3 142 -3 142 -40 8 c-22 5 -76 27 -121 48 -172 86 -274 244 -274 427 0 52 26 176 42 207 40 70 101 139 163 183 67 48 86 57 185 85 l45 13 0 145 c0 163 4 157 -80 140z"/>
    <path d="M1496 1598 c-28 -45 -29 -68 -5 -94 12 -13 28 -24 35 -24 14 0 114 -112 133 -147 13 -26 21 -27 74 -12 44 12 46 25 12 82 -35 60 -201 217 -229 217 -3 0 -12 -10 -20 -22z"/>
    <path d="M984 1511 c-44 -11 -138 -76 -179 -124 -20 -23 -49 -68 -65 -101 -26 -51 -30 -70 -30 -142 0 -58 6 -99 19 -134 22 -59 111 -173 149 -193 15 -8 49 -26 77 -41 27 -15 61 -26 75 -24 l25 3 0 380 c0 373 0 380 -20 382 -11 1 -34 -2 -51 -6z"/>
    <path d="M1786 1096 c-37 -31 -40 -37 -43 -94 -2 -34 -14 -103 -27 -154 -13 -51 -21 -97 -16 -101 4 -5 29 -7 55 -5 l48 3 23 65 c19 54 23 86 24 193 0 143 -2 146 -64 93z"/>
    <path d="M62 1013 c10 -110 117 -370 173 -423 14 -13 25 -28 25 -34 0 -15 172 -186 186 -186 6 0 19 -9 29 -20 26 -29 117 -81 198 -115 l67 -28 0 -88 c0 -48 4 -90 9 -94 12 -7 81 30 101 55 8 9 33 30 55 46 99 70 165 128 165 144 0 14 -12 18 -72 22 -78 6 -206 45 -274 84 -22 13 -48 24 -56 24 -19 0 -137 87 -201 149 -48 45 -163 198 -174 230 -3 9 -16 44 -30 79 -13 35 -32 96 -42 135 l-17 72 -74 3 -73 3 5 -58z"/>
    <path d="M1212 1024 c-59 -41 -63 -114 -10 -159 46 -39 97 -35 137 10 42 49 41 87 -3 131 -38 38 -85 45 -124 18z"/>
  </g>

  <!-- MikroTik: https://cdn.jsdelivr.net/npm/simple-icons@latest/icons/mikrotik.svg -->
  <path transform="translate(120.5 8) scale(1.333333)" fill="#C8C8C7" d="M23.041 6.188a1.404 1.404 0 0 0-.218-.36c-.24-.296-.634-.586-1.14-.864l-4.052-2.22L13.576.519C13.074.243 12.61.065 12.22.013A1.772 1.772 0 0 0 12 0c-.432 0-.974.192-1.576.52L6.37 2.74 2.317 4.96c-.504.279-.9.569-1.14.867a1.59 1.59 0 0 0-.122.17 1.654 1.654 0 0 0-.096.19c-.15.348-.22.816-.22 1.368v8.887c0 .66.1 1.2.316 1.558.216.356.66.706 1.262 1.036l4.054 2.22 4.053 2.223c.504.276.966.456 1.36.506.145.02.291.02.436 0 .39-.05.852-.228 1.356-.506l8.107-4.443c.6-.33 1.046-.68 1.262-1.036.036-.06.068-.123.096-.188.15-.348.22-.818.22-1.37V7.556c0-.552-.07-1.02-.22-1.368zM7.233 16.618c0 .2-.218.33-.396.233l-1.45-.796a1.066 1.066 0 0 1-.552-.934v-4.296c0-.2.216-.33.394-.235l1.728.947a.53.53 0 0 1 .276.468v4.612zm11.934-1.497c0 .39-.213.748-.554.936l-1.45.794a.266.266 0 0 1-.394-.234v-5.692c0-.2-.217-.33-.395-.232l-2.62 1.434c-.34.187-.552.545-.552.934v5.646a.532.532 0 0 1-.278.468l-.41.224c-.32.176-.707.176-1.026 0l-.408-.224a.532.532 0 0 1-.278-.468v-5.646c0-.389-.212-.747-.552-.934L4.835 9.16v-.28c0-.388.212-.746.552-.934l.6-.328a1.064 1.064 0 0 1 1.022 0l4.48 2.452c.318.176.704.176 1.021 0l2.07-1.134a.266.266 0 0 0 0-.468L9.932 5.922a.266.266 0 0 1 0-.468l1.556-.852c.32-.176.707-.176 1.026 0l6.1 3.34c.342.188.554.547.553.936v6.243z"/>

  <!-- dn42 icon mark extracted from the official SVG: https://dn42.eu/dn42.svg -->
  <g transform="translate(176.75 13) scale(0.15) translate(-310 -350)">
    <polygon fill="#F5F7FA" points="358.4,408.2 326.2,408.2 310.1,436.1 326.2,464 358.4,464 374.5,436.1"/>
    <polygon fill="#3C3C3B" points="408.7,436.7 376.5,436.7 360.4,464.6 376.5,492.5 408.7,492.5 424.8,464.6"/>
    <polygon fill="#575756" points="408.7,379 376.5,379 360.4,406.9 376.5,434.8 408.7,434.8 424.8,406.9"/>
    <polygon fill="#706F6F" points="458.8,408.2 426.6,408.2 410.5,436.1 426.6,464 458.8,464 474.9,436.1"/>
    <polygon fill="#9D9D9C" points="509.7,436.7 477.5,436.7 461.4,464.6 477.5,492.5 509.7,492.5 525.8,464.6"/>
    <polygon fill="#878787" points="458.8,350.2 426.6,350.2 410.5,378.1 426.6,405.9 458.8,405.9 474.9,378.1"/>
  </g>
</svg>
